<svg id="Capa_1" enable-background="new 0 0 512 512" height="512" viewBox="0 0 512 512" width="512" xmlns="http://www.w3.org/2000/svg"><g><g><path d="m81.699 48.727 8.403 23.629c.36 1.012 1.072 1.813 1.971 2.218l20.993 9.458c2.966 1.336 2.966 6.062 0 7.398l-20.993 9.458c-.899.405-1.611 1.207-1.971 2.218l-8.403 23.629c-1.187 3.338-5.386 3.338-6.573 0l-8.403-23.629c-.36-1.012-1.072-1.813-1.971-2.218l-20.993-9.458c-2.966-1.336-2.966-6.062 0-7.398l20.993-9.458c.899-.405 1.611-1.207 1.971-2.218l8.403-23.629c1.187-3.338 5.386-3.338 6.573 0z"/><ellipse cx="449.263" cy="75.661" rx="18.349" ry="18.349" transform="matrix(.707 -.707 .707 .707 78.085 339.837)"/><circle cx="121.283" cy="223.951" r="7.771"/><path d="m445.548 145.07 6.233 17.528c.267.75.795 1.345 1.462 1.646l15.573 7.016c2.2.991 2.2 4.497 0 5.488l-15.573 7.016c-.667.3-1.195.895-1.462 1.646l-6.233 17.528c-.881 2.476-3.995 2.476-4.876 0l-6.233-17.528c-.267-.751-.795-1.345-1.462-1.646l-15.573-7.016c-2.2-.991-2.2-4.497 0-5.488l15.573-7.016c.667-.3 1.195-.895 1.462-1.646l6.233-17.528c.881-2.476 3.995-2.476 4.876 0z"/></g><g><path d="m258.987 404.253c-2.491 0-4.821-1.556-5.689-4.04-13.343-38.197-22.255-69.896-28.046-99.756-.634-3.267 1.501-6.429 4.769-7.062 3.268-.632 6.429 1.501 7.062 4.768 5.678 29.276 14.445 60.44 27.592 98.076 1.098 3.141-.56 6.578-3.702 7.676-.656.229-1.327.338-1.986.338z"/><path d="m280.763 404.253c-.65 0-1.312-.106-1.963-.33-3.146-1.084-4.819-4.513-3.735-7.66 13.077-37.966 21.849-69.147 27.607-98.128.649-3.264 3.822-5.385 7.084-4.736 3.264.648 5.384 3.82 4.736 7.084-5.866 29.528-14.773 61.211-28.032 99.705-.86 2.496-3.196 4.065-5.697 4.065z"/><path d="m369.396 106.182c1.761-4.014 3.07-7.884 3.825-11.382 2.439-11.303.328-22.546-5.092-31.82.555-.663 1.104-1.342 1.639-2.051 4.288-5.679 7.2-11.981 8.198-17.746 1.225-7.07-.575-13.014-4.938-16.309-5.874-4.434-14.623-2.893-22.799 3.27-.925-2.42-2.031-4.654-3.31-6.609-3.929-6.004-9.306-9.124-14.738-8.551-5.438.569-10.048 4.731-12.649 11.418-1.807 4.648-2.616 10.35-2.36 16.314-5.594 1.654-10.796 4.393-15.317 8.02-.479-5.515-2.371-10.839-5.597-15.521-4.909-7.124-12.299-11.91-20.807-13.475l-34.358-6.324c-17.566-3.233-34.483 8.427-37.716 25.991-1.251 6.798-.264 13.496 2.428 19.345-.336.214-.673.428-1.003.656-.554.382-1.091.78-1.616 1.192l-14.726-47.72c-1.662-5.383-5.32-9.796-10.301-12.428-4.981-2.632-10.69-3.166-16.072-1.503-11.112 3.43-17.362 15.26-13.933 26.372l24.137 78.205c-9.651 4.924-16.281 14.957-16.281 26.515 0 9.038 4.066 17.13 10.446 22.59 1.503 37.485 5.78 93.492 15.461 144.64 10.851 57.33 26.213 97.277 45.89 119.564-4.925 4.993-7.971 11.843-7.971 19.394 0 6.31 2.13 12.129 5.704 16.786-13.227 8.984-23.577 20.201-29.465 28.492-3.874 5.457-4.382 12.526-1.324 18.447 3.2 6.197 9.627 10.046 16.773 10.046h116.649c7.154 0 13.585-3.855 16.782-10.062 3.054-5.928 2.537-12.998-1.348-18.45-6.954-9.757-17.118-20.293-29.325-28.567 3.529-4.641 5.629-10.425 5.629-16.692 0-7.534-3.034-14.371-7.94-19.361 19.669-22.233 35.021-62.066 45.858-119.224 9.64-50.837 13.922-106.738 15.443-144.377 6.812-5.458 11.187-13.838 11.187-23.225.002-11.067-6.075-20.735-15.063-25.86zm-4.401-69.87c.354 0 .616.063.772.181.266.201.839 1.673.326 4.633-.645 3.724-2.698 8.113-5.638 12.118-2.174-2.085-4.567-3.958-7.156-5.58.006-1.289-.02-2.596-.118-3.938 4.988-5.432 9.834-7.414 11.814-7.414zm-34.229-5.543c1.089-2.8 2.338-3.765 2.671-3.8.008-.001.016-.001.026-.001.374 0 1.767.712 3.374 3.166 1.69 2.583 2.994 6.135 3.736 10.036-.43.593-.833 1.19-1.229 1.787-.083-.018-.164-.042-.248-.06-3.329-.718-6.651-1.028-9.921-.989-.033-3.802.514-7.371 1.591-10.139zm-1.065 22.175c2.261 0 4.556.238 6.853.734 17.498 3.775 28.662 21.082 24.887 38.579-.686 3.178-1.911 6.649-3.536 10.203-1.05-.113-2.116-.174-3.195-.174h-3.122c-1.5-18.526-17.045-33.145-35.95-33.145h-14.002c5.753-9.911 16.459-16.197 28.065-16.197zm-14.065 28.25c12.255 0 22.389 9.224 23.842 21.093h-101.463c1.453-11.869 11.587-21.093 23.842-21.093zm-80.413-54.265c1.217 0 2.451.11 3.69.338l34.358 6.324c5.342.983 9.982 3.988 13.064 8.461 1.202 1.745 2.102 3.635 2.705 5.604l-69.405-13.418c3.799-4.53 9.479-7.309 15.588-7.309zm-20.254 18.683 73.932 14.293c-1.17 3.605-3.293 6.791-6.206 9.238h-1.81c-3.929-2.93-8.506-4.945-13.468-5.858l-38.372-7.063c-4.041-.744-8.104-.71-12.02.047-1.603-3.221-2.366-6.883-2.056-10.657zm-3.327 25.718c3.433-2.366 7.415-3.597 11.497-3.597 1.236 0 2.482.113 3.724.342l21.049 3.875c-12.13 5.103-20.896 16.654-22.004 30.338h-10.469l-8.256-26.75c1.249-1.6 2.739-3.023 4.459-4.208zm-51.97-47.563c-1.47-4.763 1.209-9.833 5.972-11.303.88-.272 1.781-.407 2.676-.407 1.451 0 2.89.354 4.209 1.051 2.135 1.128 3.703 3.021 4.416 5.328l25.88 83.852h-17.06c-.618 0-1.231.025-1.84.063zm165.13 468.147h-109.914c6.571-8.234 18.005-19.363 31.722-26.072.287.009.574.022.863.022h44.804c.266 0 .529-.013.793-.02 13.692 6.709 25.138 17.833 31.732 26.07zm-84.878-53.686c0-4.163 3.387-7.55 7.549-7.55h44.804c4.162 0 7.549 3.387 7.549 7.55s-3.387 7.549-7.549 7.549h-44.804c-4.162.001-7.549-3.386-7.549-7.549zm98.173-142.327c-11.119 58.639-27.132 97.938-46.274 114.692h-43.854c-19.149-16.788-35.177-56.213-46.314-115.057-7.18-37.936-11.32-78.607-13.544-112.051 5.186 4.715 12.072 7.592 19.617 7.592 16.095 0 29.19-13.094 29.19-29.19v-.094h4.692v32.756c0 16.095 13.095 29.19 29.19 29.19s29.191-13.095 29.191-29.19v-32.756h52.896c-1.722 36.543-5.953 87.502-14.79 134.108zm16.611-154.194h-65.078c-2.973 0-5.792 1.317-7.7 3.596-1.909 2.279-2.709 5.286-2.187 8.212.109.605.161 1.132.161 1.613v39.42c0 5.02-4.084 9.104-9.104 9.104s-9.104-4.084-9.104-9.104v-39.42c0-.483.053-1.011.16-1.613.523-2.926-.278-5.934-2.186-8.212-1.908-2.279-4.728-3.596-7.7-3.596h-25.41c-2.973 0-5.792 1.317-7.701 3.596-1.908 2.279-2.709 5.286-2.186 8.212.107.601.159 1.128.159 1.613v6.758c0 5.02-4.084 9.104-9.104 9.104s-9.104-4.084-9.104-9.104v-6.758c0-.485.052-1.013.159-1.613.523-2.926-.278-5.934-2.186-8.212-1.908-2.279-4.728-3.596-7.701-3.596h-3.132c-5.33 0-9.667-4.337-9.667-9.667s4.337-9.667 9.667-9.667h168.943c5.33 0 9.666 4.337 9.666 9.667.001 5.331-4.335 9.667-9.665 9.667z"/><path d="m215.872 272.197c-4.884 0-9.166-3.568-9.918-8.544-.442-2.925-1.032-6.397-1.657-10.073-.936-5.509-1.904-11.204-2.504-15.841-.712-5.501 3.169-10.537 8.67-11.249 5.503-.713 10.537 3.169 11.249 8.67.55 4.243 1.483 9.74 2.387 15.056.641 3.77 1.246 7.33 1.715 10.438.829 5.484-2.946 10.602-8.43 11.43-.507.076-1.013.113-1.512.113z"/><path d="m208.763 219.877c-5.076 0-9.434-3.834-9.976-8.994-.148-1.409-.291-2.819-.429-4.229-.541-5.52 3.496-10.433 9.016-10.974 5.523-.547 10.433 3.496 10.974 9.016.134 1.363.272 2.726.415 4.087.58 5.516-3.422 10.458-8.938 11.038-.357.038-.712.056-1.062.056z"/></g></g></svg>