<svg id="Capa_1" enable-background="new 0 0 497 497" height="512" viewBox="0 0 497 497" width="512" xmlns="http://www.w3.org/2000/svg"><g><path d="m47 379.5 60-36v-90l60-36v-91s39.662-18 82.481-18 80.519 18 80.519 18v91l60 36v90l60 36v56.5s-59.54 20-201.5 20-201.5-20-201.5-20z" fill="#edf3f6"/><g fill="#8aaadc"><path d="m107 310h283v43.5h-283z"/><path d="m47 436h403v43.5h-403z"/><path d="m167 184h163v43.5h-163z"/></g><path d="m220.5 104.5c14.524 0 20.941-8.334 20.941-12.296 0-23.362-14.186-59.704-20.941-59.704s-20.941 36.342-20.941 59.704c0 3.962 6.417 12.296 20.941 12.296z" fill="#b8c9ea"/><path d="m280.5 32.5c-14.524 0-20.941 8.334-20.941 12.296 0 23.362 14.186 59.704 20.941 59.704s20.941-36.342 20.941-59.704c0-3.962-6.417-12.296-20.941-12.296z" fill="#766d78"/><circle cx="280.5" cy="17.5" fill="#ffcdbe" r="15"/><circle cx="220.5" cy="17.5" fill="#ffcdbe" r="15"/><path d="m211.928 179.258c-3.475-4.083-19.538-.463-29.49 4.828-2.421-11.008-10.077-25.586-15.438-25.586s-13.017 14.578-15.438 25.586c-9.952-5.291-26.015-8.911-29.49-4.828-4.176 4.907 5.532 25.992 13.61 32.868s23.443 14.627 31.318 5.374c7.876 9.252 23.24 1.501 31.318-5.374 8.078-6.876 17.787-27.962 13.61-32.868z" fill="#ffc250"/><path d="m293.428 305.258c-3.475-4.083-19.538-.463-29.49 4.829-2.421-11.008-10.077-25.586-15.438-25.586s-13.017 14.578-15.438 25.586c-9.952-5.291-26.015-8.911-29.49-4.829-4.177 4.907 5.532 25.992 13.61 32.868s23.443 14.627 31.318 5.374c7.875 9.252 23.241 1.501 31.318-5.374 8.078-6.876 17.786-27.962 13.61-32.868z" fill="#ffc250"/><path d="m420.928 431.258c-3.475-4.083-19.538-.463-29.49 4.829-2.421-11.009-10.077-25.587-15.438-25.587s-13.017 14.578-15.438 25.586c-9.952-5.291-26.015-8.911-29.49-4.829-4.176 4.907 5.532 25.992 13.61 32.868s23.443 14.627 31.318 5.374c7.875 9.252 23.241 1.501 31.318-5.374 8.078-6.875 17.786-27.961 13.61-32.867z" fill="#ffc250"/><path d="m484.5 494.5h-472c-6.875 0-12.5-5.627-12.5-12.502 0-1.775 0-3.467 0-5 0-4.142 3.358-7.498 7.5-7.498h482c4.142 0 7.5 3.356 7.5 7.498v5c0 6.875-5.625 12.502-12.5 12.502z" fill="#b1abb4"/><path d="m330 126.5v-21c0-8.25-6.75-15-15-15h-133c-8.25 0-15 6.75-15 15v21z" fill="#f5fcff"/><path d="m390 253.5v-21c0-8.25-6.75-15-15-15h-253c-8.25 0-15 6.75-15 15v21z" fill="#f5fcff"/><path d="m450 379.5v-21c0-8.25-6.75-15-15-15h-373c-8.25 0-15 6.75-15 15v21z" fill="#f5fcff"/></g></svg>